<svg viewBox="0 0 24 24" fill="none" stroke="currentColor" stroke-width="2" stroke-linecap="round" stroke-linejoin="round" class="icon icon-tabler icons-tabler-outline icon-tabler-address-book-off">
  <path d="M8 4h10a2 2 0 0 1 2 2v10m-.57 3.399c-.363 .37 -.87 .601 -1.43 .601h-10a2 2 0 0 1 -2 -2v-12"></path>
  <path d="M10 16h6"></path>
  <path d="M11 11a2 2 0 0 0 2 2m2 -2a2 2 0 0 0 -2 -2"></path>
  <path d="M4 8h3"></path>
  <path d="M4 12h3"></path>
  <path d="M4 16h3"></path>
  <path d="M3 3l18 18"></path>
</svg>
