<svg viewBox="0 0 24 24" fill="none" stroke="currentColor" stroke-width="2" stroke-linecap="round" stroke-linejoin="round" class="icon icon-tabler icons-tabler-outline icon-tabler-adjustments-dollar">
  <path d="M4 10a2 2 0 1 0 4 0a2 2 0 0 0 -4 0"></path>
  <path d="M6 4v4"></path>
  <path d="M6 12v8"></path>
  <path d="M13.366 14.54a2 2 0 1 0 -.216 3.097"></path>
  <path d="M12 4v10"></path>
  <path d="M12 18v2"></path>
  <path d="M16 7a2 2 0 1 0 4 0a2 2 0 0 0 -4 0"></path>
  <path d="M18 4v1"></path>
  <path d="M18 9v1"></path>
  <path d="M21 15h-2.5a1.5 1.5 0 0 0 0 3h1a1.5 1.5 0 0 1 0 3h-2.5"></path>
  <path d="M19 21v1m0 -8v1"></path>
</svg>
