<svg class="icon icon-tabler icon-tabler-adjustments-down" viewBox="0 0 24 24" stroke-width="2" stroke="currentColor" fill="none" stroke-linecap="round" stroke-linejoin="round">
  <path d="M4 10a2 2 0 1 0 4 0a2 2 0 0 0 -4 0"></path>
  <path d="M6 4v4"></path>
  <path d="M6 12v8"></path>
  <path d="M13.945 15.53a2 2 0 1 0 -1.945 2.47"></path>
  <path d="M12 4v10"></path>
  <path d="M12 18v2"></path>
  <path d="M16 7a2 2 0 1 0 4 0a2 2 0 0 0 -4 0"></path>
  <path d="M18 4v1"></path>
  <path d="M18 9v3"></path>
  <path d="M19 16v6"></path>
  <path d="M22 19l-3 3l-3 -3"></path>
</svg>
