<svg class="icon icon-tabler icon-tabler-adjustments-pause" viewBox="0 0 24 24" stroke-width="2" stroke="currentColor" fill="none" stroke-linecap="round" stroke-linejoin="round">
  <path d="M4 10a2 2 0 1 0 4 0a2 2 0 0 0 -4 0"></path>
  <path d="M6 4v4"></path>
  <path d="M6 12v8"></path>
  <path d="M13.627 14.836a2 2 0 1 0 -.62 2.892"></path>
  <path d="M12 4v10"></path>
  <path d="M12 18v2"></path>
  <path d="M16 7a2 2 0 1 0 4 0a2 2 0 0 0 -4 0"></path>
  <path d="M18 4v1"></path>
  <path d="M17 17v5"></path>
  <path d="M21 17v5"></path>
  <path d="M18 9v4.5"></path>
</svg>
