<svg viewBox="0 0 24 24" fill="none" stroke="currentColor" stroke-width="2" stroke-linecap="round" stroke-linejoin="round" class="icon icon-tabler icons-tabler-outline icon-tabler-adjustments-horizontal">
  <path d="M14 6m-2 0a2 2 0 1 0 4 0a2 2 0 1 0 -4 0"></path>
  <path d="M4 6l8 0"></path>
  <path d="M16 6l4 0"></path>
  <path d="M8 12m-2 0a2 2 0 1 0 4 0a2 2 0 1 0 -4 0"></path>
  <path d="M4 12l2 0"></path>
  <path d="M10 12l10 0"></path>
  <path d="M17 18m-2 0a2 2 0 1 0 4 0a2 2 0 1 0 -4 0"></path>
  <path d="M4 18l11 0"></path>
  <path d="M19 18l1 0"></path>
</svg>
