<svg viewBox="0 0 24 24" fill="none" stroke="currentColor" stroke-width="2" stroke-linecap="round" stroke-linejoin="round" class="icon icon-tabler icons-tabler-outline icon-tabler-analyze">
  <path d="M20 11a8.1 8.1 0 0 0 -6.986 -6.918a8.095 8.095 0 0 0 -8.019 3.918"></path>
  <path d="M4 13a8.1 8.1 0 0 0 15 3"></path>
  <path d="M19 16m-1 0a1 1 0 1 0 2 0a1 1 0 1 0 -2 0"></path>
  <path d="M5 8m-1 0a1 1 0 1 0 2 0a1 1 0 1 0 -2 0"></path>
  <path d="M12 12m-3 0a3 3 0 1 0 6 0a3 3 0 1 0 -6 0"></path>
</svg>
