<svg class="icon icon-tabler icon-tabler-artboard" viewBox="0 0 24 24" stroke-width="2" stroke="currentColor" fill="none" stroke-linecap="round" stroke-linejoin="round">
  <path d="M8 8m0 1a1 1 0 0 1 1 -1h6a1 1 0 0 1 1 1v6a1 1 0 0 1 -1 1h-6a1 1 0 0 1 -1 -1z"></path>
  <path d="M3 8l1 0"></path>
  <path d="M3 16l1 0"></path>
  <path d="M8 3l0 1"></path>
  <path d="M16 3l0 1"></path>
  <path d="M20 8l1 0"></path>
  <path d="M20 16l1 0"></path>
  <path d="M8 20l0 1"></path>
  <path d="M16 20l0 1"></path>
</svg>
