<svg viewBox="0 0 24 24" fill="none" stroke="currentColor" stroke-width="2" stroke-linecap="round" stroke-linejoin="round" class="icon icon-tabler icons-tabler-outline icon-tabler-asset">
  <path d="M9 15m-6 0a6 6 0 1 0 12 0a6 6 0 1 0 -12 0"></path>
  <path d="M9 15m-2 0a2 2 0 1 0 4 0a2 2 0 1 0 -4 0"></path>
  <path d="M19 5m-2 0a2 2 0 1 0 4 0a2 2 0 1 0 -4 0"></path>
  <path d="M14.218 17.975l6.619 -12.174"></path>
  <path d="M6.079 9.756l12.217 -6.631"></path>
  <path d="M9 15m-2 0a2 2 0 1 0 4 0a2 2 0 1 0 -4 0"></path>
</svg>
