<svg viewBox="0 0 24 24" fill="none" stroke="currentColor" stroke-width="2" stroke-linecap="round" stroke-linejoin="round" class="icon icon-tabler icons-tabler-outline icon-tabler-barbell">
  <path d="M2 12h1"></path>
  <path d="M6 8h-2a1 1 0 0 0 -1 1v6a1 1 0 0 0 1 1h2"></path>
  <path d="M6 7v10a1 1 0 0 0 1 1h1a1 1 0 0 0 1 -1v-10a1 1 0 0 0 -1 -1h-1a1 1 0 0 0 -1 1z"></path>
  <path d="M9 12h6"></path>
  <path d="M15 7v10a1 1 0 0 0 1 1h1a1 1 0 0 0 1 -1v-10a1 1 0 0 0 -1 -1h-1a1 1 0 0 0 -1 1z"></path>
  <path d="M18 8h2a1 1 0 0 1 1 1v6a1 1 0 0 1 -1 1h-2"></path>
  <path d="M22 12h-1"></path>
</svg>
