<svg viewBox="0 0 24 24" fill="none" stroke="currentColor" stroke-width="2" stroke-linecap="round" stroke-linejoin="round" class="icon icon-tabler icons-tabler-outline icon-tabler-barcode">
  <path d="M4 7v-1a2 2 0 0 1 2 -2h2"></path>
  <path d="M4 17v1a2 2 0 0 0 2 2h2"></path>
  <path d="M16 4h2a2 2 0 0 1 2 2v1"></path>
  <path d="M16 20h2a2 2 0 0 0 2 -2v-1"></path>
  <path d="M5 11h1v2h-1z"></path>
  <path d="M10 11l0 2"></path>
  <path d="M14 11h1v2h-1z"></path>
  <path d="M19 11l0 2"></path>
</svg>
