<svg class="icon icon-tabler icon-tabler-barrier-block" viewBox="0 0 24 24" stroke-width="2" stroke="currentColor" fill="none" stroke-linecap="round" stroke-linejoin="round">
  <path d="M4 7m0 1a1 1 0 0 1 1 -1h14a1 1 0 0 1 1 1v7a1 1 0 0 1 -1 1h-14a1 1 0 0 1 -1 -1z"></path>
  <path d="M7 16v4"></path>
  <path d="M7.5 16l9 -9"></path>
  <path d="M13.5 16l6.5 -6.5"></path>
  <path d="M4 13.5l6.5 -6.5"></path>
  <path d="M17 16v4"></path>
  <path d="M5 20h4"></path>
  <path d="M15 20h4"></path>
  <path d="M17 7v-2"></path>
  <path d="M7 7v-2"></path>
</svg>
