<svg viewBox="0 0 24 24" fill="none" stroke="currentColor" stroke-width="2" stroke-linecap="round" stroke-linejoin="round" class="icon icon-tabler icons-tabler-outline icon-tabler-blade">
  <path d="M17.707 3.707l2.586 2.586a1 1 0 0 1 0 1.414l-.586 .586a1 1 0 0 0 0 1.414l.586 .586a1 1 0 0 1 0 1.414l-8.586 8.586a1 1 0 0 1 -1.414 0l-.586 -.586a1 1 0 0 0 -1.414 0l-.586 .586a1 1 0 0 1 -1.414 0l-2.586 -2.586a1 1 0 0 1 0 -1.414l.586 -.586a1 1 0 0 0 0 -1.414l-.586 -.586a1 1 0 0 1 0 -1.414l8.586 -8.586a1 1 0 0 1 1.414 0l.586 .586a1 1 0 0 0 1.414 0l.586 -.586a1 1 0 0 1 1.414 0z"></path>
  <path d="M8 16l3.2 -3.2"></path>
  <path d="M12.8 11.2l3.2 -3.2"></path>
  <path d="M14 8l2 2"></path>
  <path d="M8 14l2 2"></path>
  <path d="M12 12m-1 0a1 1 0 1 0 2 0a1 1 0 1 0 -2 0"></path>
</svg>
