<svg viewBox="0 0 24 24" fill="none" stroke="currentColor" stroke-width="2" stroke-linecap="round" stroke-linejoin="round" class="icon icon-tabler icons-tabler-outline icon-tabler-border-horizontal">
  <path d="M4 12l16 0"></path>
  <path d="M4 4l0 .01"></path>
  <path d="M8 4l0 .01"></path>
  <path d="M12 4l0 .01"></path>
  <path d="M16 4l0 .01"></path>
  <path d="M20 4l0 .01"></path>
  <path d="M4 8l0 .01"></path>
  <path d="M12 8l0 .01"></path>
  <path d="M20 8l0 .01"></path>
  <path d="M4 16l0 .01"></path>
  <path d="M12 16l0 .01"></path>
  <path d="M20 16l0 .01"></path>
  <path d="M4 20l0 .01"></path>
  <path d="M8 20l0 .01"></path>
  <path d="M12 20l0 .01"></path>
  <path d="M16 20l0 .01"></path>
  <path d="M20 20l0 .01"></path>
</svg>
