<svg viewBox="0 0 24 24" fill="none" stroke="currentColor" stroke-width="2" stroke-linecap="round" stroke-linejoin="round" class="icon icon-tabler icons-tabler-outline icon-tabler-box-align-top-right">
  <path d="M19 11.01h-5a1 1 0 0 1 -1 -1v-5a1 1 0 0 1 1 -1h5a1 1 0 0 1 1 1v5a1 1 0 0 1 -1 1z"></path>
  <path d="M20 15.01v-.01"></path>
  <path d="M20 20.01v-.01"></path>
  <path d="M15 20.01v-.01"></path>
  <path d="M9 20.01v-.01"></path>
  <path d="M9 4.01v-.01"></path>
  <path d="M4 20.01v-.01"></path>
  <path d="M4 15.01v-.01"></path>
  <path d="M4 9.01v-.01"></path>
  <path d="M4 4.01v-.01"></path>
</svg>
