<svg viewBox="0 0 24 24" fill="none" stroke="currentColor" stroke-width="2" stroke-linecap="round" stroke-linejoin="round" class="icon icon-tabler icons-tabler-outline icon-tabler-brand-twilio">
  <path d="M21 12a9 9 0 1 1 -18 0a9 9 0 0 1 18 0z"></path>
  <path d="M9 9m-1 0a1 1 0 1 0 2 0a1 1 0 1 0 -2 0"></path>
  <path d="M15 9m-1 0a1 1 0 1 0 2 0a1 1 0 1 0 -2 0"></path>
  <path d="M15 15m-1 0a1 1 0 1 0 2 0a1 1 0 1 0 -2 0"></path>
  <path d="M9 15m-1 0a1 1 0 1 0 2 0a1 1 0 1 0 -2 0"></path>
</svg>
