<svg viewBox="0 0 24 24" fill="none" stroke="currentColor" stroke-width="2" stroke-linecap="round" stroke-linejoin="round" class="icon icon-tabler icons-tabler-outline icon-tabler-brand-blackberry">
  <path d="M7 6a1 1 0 0 0 -1 -1h-2l-.5 2h2.5a1 1 0 0 0 1 -1z"></path>
  <path d="M6 12a1 1 0 0 0 -1 -1h-2l-.5 2h2.5a1 1 0 0 0 1 -1z"></path>
  <path d="M13 12a1 1 0 0 0 -1 -1h-2l-.5 2h2.5a1 1 0 0 0 1 -1z"></path>
  <path d="M14 6a1 1 0 0 0 -1 -1h-2l-.5 2h2.5a1 1 0 0 0 1 -1z"></path>
  <path d="M12 18a1 1 0 0 0 -1 -1h-2l-.5 2h2.5a1 1 0 0 0 1 -1z"></path>
  <path d="M20 15a1 1 0 0 0 -1 -1h-2l-.5 2h2.5a1 1 0 0 0 1 -1z"></path>
  <path d="M21 9a1 1 0 0 0 -1 -1h-2l-.5 2h2.5a1 1 0 0 0 1 -1z"></path>
</svg>
