<svg class="icon icon-tabler icon-tabler-brand-graphql" viewBox="0 0 24 24" stroke-width="2" stroke="currentColor" fill="none" stroke-linecap="round" stroke-linejoin="round">
  <path d="M5.308 7.265l5.385 -3.029"></path>
  <path d="M13.308 4.235l5.384 3.03"></path>
  <path d="M20 9.5v5"></path>
  <path d="M18.693 16.736l-5.385 3.029"></path>
  <path d="M10.692 19.765l-5.384 -3.03"></path>
  <path d="M4 14.5v-5"></path>
  <path d="M12.772 4.786l6.121 10.202"></path>
  <path d="M18.5 16h-13"></path>
  <path d="M5.107 14.988l6.122 -10.201"></path>
  <path d="M12 3.5m-1.5 0a1.5 1.5 0 1 0 3 0a1.5 1.5 0 1 0 -3 0"></path>
  <path d="M12 20.5m-1.5 0a1.5 1.5 0 1 0 3 0a1.5 1.5 0 1 0 -3 0"></path>
  <path d="M4 8m-1.5 0a1.5 1.5 0 1 0 3 0a1.5 1.5 0 1 0 -3 0"></path>
  <path d="M4 16m-1.5 0a1.5 1.5 0 1 0 3 0a1.5 1.5 0 1 0 -3 0"></path>
  <path d="M20 16m-1.5 0a1.5 1.5 0 1 0 3 0a1.5 1.5 0 1 0 -3 0"></path>
  <path d="M20 8m-1.5 0a1.5 1.5 0 1 0 3 0a1.5 1.5 0 1 0 -3 0"></path>
</svg>
