<svg class="icon icon-tabler icon-tabler-brand-python" viewBox="0 0 24 24" stroke-width="2" stroke="currentColor" fill="none" stroke-linecap="round" stroke-linejoin="round">
  <path d="M12 9h-7a2 2 0 0 0 -2 2v4a2 2 0 0 0 2 2h3"></path>
  <path d="M12 15h7a2 2 0 0 0 2 -2v-4a2 2 0 0 0 -2 -2h-3"></path>
  <path d="M8 9v-4a2 2 0 0 1 2 -2h4a2 2 0 0 1 2 2v5a2 2 0 0 1 -2 2h-4a2 2 0 0 0 -2 2v5a2 2 0 0 0 2 2h4a2 2 0 0 0 2 -2v-4"></path>
  <path d="M11 6l0 .01"></path>
  <path d="M13 18l0 .01"></path>
</svg>
