<svg viewBox="0 0 24 24" fill="none" stroke="currentColor" stroke-width="2" stroke-linecap="round" stroke-linejoin="round" class="icon icon-tabler icons-tabler-outline icon-tabler-building-airport">
  <path d="M3.59 7h8.82a1 1 0 0 1 .902 1.433l-1.44 3a1 1 0 0 1 -.901 .567h-5.942a1 1 0 0 1 -.901 -.567l-1.44 -3a1 1 0 0 1 .901 -1.433"></path>
  <path d="M6 7l-.78 -2.342a.5 .5 0 0 1 .473 -.658h4.612a.5 .5 0 0 1 .475 .658l-.78 2.342"></path>
  <path d="M8 2v2"></path>
  <path d="M6 12v9h4v-9"></path>
  <path d="M3 21h18"></path>
  <path d="M22 5h-6l-1 -1"></path>
  <path d="M18 3l2 2l-2 2"></path>
  <path d="M10 17h7a2 2 0 0 1 2 2v2"></path>
</svg>
