<svg viewBox="0 0 24 24" fill="none" stroke="currentColor" stroke-width="2" stroke-linecap="round" stroke-linejoin="round" class="icon icon-tabler icons-tabler-outline icon-tabler-bulldozer">
  <path d="M2 17a2 2 0 1 0 4 0a2 2 0 0 0 -4 0"></path>
  <path d="M12 17a2 2 0 1 0 4 0a2 2 0 0 0 -4 0"></path>
  <path d="M19 13v4a2 2 0 0 0 2 2h1"></path>
  <path d="M14 19h-10"></path>
  <path d="M4 15h10"></path>
  <path d="M9 11v-5h2a3 3 0 0 1 3 3v6"></path>
  <path d="M5 15v-3a1 1 0 0 1 1 -1h8"></path>
  <path d="M19 17h-3"></path>
</svg>
