<svg viewBox="0 0 24 24" fill="none" stroke="currentColor" stroke-width="2" stroke-linecap="round" stroke-linejoin="round" class="icon icon-tabler icons-tabler-outline icon-tabler-businessplan">
  <path d="M16 6m-5 0a5 3 0 1 0 10 0a5 3 0 1 0 -10 0"></path>
  <path d="M11 6v4c0 1.657 2.239 3 5 3s5 -1.343 5 -3v-4"></path>
  <path d="M11 10v4c0 1.657 2.239 3 5 3s5 -1.343 5 -3v-4"></path>
  <path d="M11 14v4c0 1.657 2.239 3 5 3s5 -1.343 5 -3v-4"></path>
  <path d="M7 9h-2.5a1.5 1.5 0 0 0 0 3h1a1.5 1.5 0 0 1 0 3h-2.5"></path>
  <path d="M5 15v1m0 -8v1"></path>
</svg>
