<svg class="icon icon-tabler icon-tabler-businessplan" viewBox="0 0 24 24" stroke-width="2" stroke="currentColor" fill="none" stroke-linecap="round" stroke-linejoin="round">
  <path d="M16 6m-5 0a5 3 0 1 0 10 0a5 3 0 1 0 -10 0"></path>
  <path d="M11 6v4c0 1.657 2.239 3 5 3s5 -1.343 5 -3v-4"></path>
  <path d="M11 10v4c0 1.657 2.239 3 5 3s5 -1.343 5 -3v-4"></path>
  <path d="M11 14v4c0 1.657 2.239 3 5 3s5 -1.343 5 -3v-4"></path>
  <path d="M7 9h-2.5a1.5 1.5 0 0 0 0 3h1a1.5 1.5 0 0 1 0 3h-2.5"></path>
  <path d="M5 15v1m0 -8v1"></path>
</svg>
