<svg class="icon icon-tabler icon-tabler-caravan" viewBox="0 0 24 24" stroke-width="2" stroke="currentColor" fill="none" stroke-linecap="round" stroke-linejoin="round">
  <path d="M7 18a2 2 0 1 0 4 0a2 2 0 0 0 -4 0"></path>
  <path d="M11 18h7a2 2 0 0 0 2 -2v-7a2 2 0 0 0 -2 -2h-9.5a5.5 5.5 0 0 0 -5.5 5.5v3.5a2 2 0 0 0 2 2h2"></path>
  <path d="M8 7l7 -3l1 3"></path>
  <path d="M13 11m0 .5a.5 .5 0 0 1 .5 -.5h2a.5 .5 0 0 1 .5 .5v2a.5 .5 0 0 1 -.5 .5h-2a.5 .5 0 0 1 -.5 -.5z"></path>
  <path d="M20 16h2"></path>
</svg>
