<svg class="icon icon-tabler icon-tabler-chart-bar-off" viewBox="0 0 24 24" stroke-width="2" stroke="currentColor" fill="none" stroke-linecap="round" stroke-linejoin="round">
  <path d="M3 12m0 1a1 1 0 0 1 1 -1h4a1 1 0 0 1 1 1v6a1 1 0 0 1 -1 1h-4a1 1 0 0 1 -1 -1z"></path>
  <path d="M12 8h2a1 1 0 0 1 1 1v2m0 4v4a1 1 0 0 1 -1 1h-4a1 1 0 0 1 -1 -1v-10"></path>
  <path d="M15 11v-6a1 1 0 0 1 1 -1h4a1 1 0 0 1 1 1v12m-1 3h-4a1 1 0 0 1 -1 -1v-4"></path>
  <path d="M4 20h14"></path>
  <path d="M3 3l18 18"></path>
</svg>
