<svg viewBox="0 0 24 24" fill="none" stroke="currentColor" stroke-width="2" stroke-linecap="round" stroke-linejoin="round" class="icon icon-tabler icons-tabler-outline icon-tabler-chess-queen">
  <path d="M16 16l2 -11l-4 4l-2 -5l-2 5l-4 -4l2 11"></path>
  <path d="M8 16l-1.447 .724a1 1 0 0 0 -.553 .894v2.382h12v-2.382a1 1 0 0 0 -.553 -.894l-1.447 -.724h-8z"></path>
  <path d="M12 4m-1 0a1 1 0 1 0 2 0a1 1 0 1 0 -2 0"></path>
  <path d="M6 5m-1 0a1 1 0 1 0 2 0a1 1 0 1 0 -2 0"></path>
  <path d="M18 5m-1 0a1 1 0 1 0 2 0a1 1 0 1 0 -2 0"></path>
</svg>
