<svg viewBox="0 0 24 24" fill="none" stroke="currentColor" stroke-width="2" stroke-linecap="round" stroke-linejoin="round" class="icon icon-tabler icons-tabler-outline icon-tabler-code-asterisk">
  <path d="M6 19a2 2 0 0 1 -2 -2v-4l-1 -1l1 -1v-4a2 2 0 0 1 2 -2"></path>
  <path d="M12 11.875l3 -1.687"></path>
  <path d="M12 11.875v3.375"></path>
  <path d="M12 11.875l-3 -1.687"></path>
  <path d="M12 11.875l3 1.688"></path>
  <path d="M12 8.5v3.375"></path>
  <path d="M12 11.875l-3 1.688"></path>
  <path d="M18 19a2 2 0 0 0 2 -2v-4l1 -1l-1 -1v-4a2 2 0 0 0 -2 -2"></path>
</svg>
