<svg viewBox="0 0 24 24" fill="none" stroke="currentColor" stroke-width="2" stroke-linecap="round" stroke-linejoin="round" class="icon icon-tabler icons-tabler-outline icon-tabler-credit-card-off">
  <path d="M3 3l18 18"></path>
  <path d="M9 5h9a3 3 0 0 1 3 3v8a3 3 0 0 1 -.128 .87"></path>
  <path d="M18.87 18.872a3 3 0 0 1 -.87 .128h-12a3 3 0 0 1 -3 -3v-8c0 -1.352 .894 -2.495 2.124 -2.87"></path>
  <path d="M3 11l8 0"></path>
  <path d="M15 11l6 0"></path>
  <path d="M7 15l.01 0"></path>
  <path d="M11 15l2 0"></path>
</svg>
