<svg class="icon icon-tabler icon-tabler-crutches-off" viewBox="0 0 24 24" stroke-width="2" stroke="currentColor" fill="none" stroke-linecap="round" stroke-linejoin="round">
  <path d="M8.178 4.174a2 2 0 0 1 1.822 -1.174h4a2 2 0 1 1 0 4h-3"></path>
  <path d="M11 21h2"></path>
  <path d="M12 21v-4.092a3 3 0 0 1 .504 -1.664l.992 -1.488a3 3 0 0 0 .097 -.155m.407 -3.601v-3"></path>
  <path d="M12 21v-4.092a3 3 0 0 0 -.504 -1.664l-.992 -1.488a3 3 0 0 1 -.504 -1.664v-2.092"></path>
  <path d="M10 11h1"></path>
  <path d="M3 3l18 18"></path>
</svg>
