<svg viewBox="0 0 24 24" fill="none" stroke="currentColor" stroke-width="2" stroke-linecap="round" stroke-linejoin="round" class="icon icon-tabler icons-tabler-outline icon-tabler-crutches">
  <path d="M8 3m0 2a2 2 0 0 1 2 -2h4a2 2 0 0 1 2 2v0a2 2 0 0 1 -2 2h-4a2 2 0 0 1 -2 -2z"></path>
  <path d="M11 21h2"></path>
  <path d="M12 21v-4.092a3 3 0 0 1 .504 -1.664l.992 -1.488a3 3 0 0 0 .504 -1.664v-5.092"></path>
  <path d="M12 21v-4.092a3 3 0 0 0 -.504 -1.664l-.992 -1.488a3 3 0 0 1 -.504 -1.664v-5.092"></path>
  <path d="M10 11h4"></path>
</svg>
