<svg viewBox="0 0 24 24" fill="none" stroke="currentColor" stroke-width="2" stroke-linecap="round" stroke-linejoin="round" class="icon icon-tabler icons-tabler-outline icon-tabler-database-dollar">
  <path d="M4 6c0 1.657 3.582 3 8 3s8 -1.343 8 -3s-3.582 -3 -8 -3s-8 1.343 -8 3"></path>
  <path d="M4 6v6c0 1.657 3.582 3 8 3c.415 0 .822 -.012 1.22 -.035"></path>
  <path d="M20 10v-4"></path>
  <path d="M4 12v6c0 1.657 3.582 3 8 3c.352 0 .698 -.009 1.037 -.025"></path>
  <path d="M21 15h-2.5a1.5 1.5 0 0 0 0 3h1a1.5 1.5 0 0 1 0 3h-2.5"></path>
  <path d="M19 21v1m0 -8v1"></path>
</svg>
