<svg viewBox="0 0 24 24" fill="none" stroke="currentColor" stroke-width="2" stroke-linecap="round" stroke-linejoin="round" class="icon icon-tabler icons-tabler-outline icon-tabler-deselect">
  <path d="M12 8h3a1 1 0 0 1 1 1v3"></path>
  <path d="M16 16h-7a1 1 0 0 1 -1 -1v-7"></path>
  <path d="M12 20v.01"></path>
  <path d="M16 20v.01"></path>
  <path d="M8 20v.01"></path>
  <path d="M4 20v.01"></path>
  <path d="M4 16v.01"></path>
  <path d="M4 12v.01"></path>
  <path d="M4 8v.01"></path>
  <path d="M8 4v.01"></path>
  <path d="M12 4v.01"></path>
  <path d="M16 4v.01"></path>
  <path d="M20 4v.01"></path>
  <path d="M20 8v.01"></path>
  <path d="M20 12v.01"></path>
  <path d="M20 16v.01"></path>
  <path d="M3 3l18 18"></path>
</svg>
