<svg class="icon icon-tabler icon-tabler-device-imac-pin" viewBox="0 0 24 24" stroke-width="2" stroke="currentColor" fill="none" stroke-linecap="round" stroke-linejoin="round">
  <path d="M12 17h-8a1 1 0 0 1 -1 -1v-12a1 1 0 0 1 1 -1h16a1 1 0 0 1 1 1v7.5"></path>
  <path d="M21.121 20.121a3 3 0 1 0 -4.242 0c.418 .419 1.125 1.045 2.121 1.879c1.051 -.89 1.759 -1.516 2.121 -1.879z"></path>
  <path d="M19 18v.01"></path>
  <path d="M3 13h11"></path>
  <path d="M8 21h4.5"></path>
  <path d="M10 17l-.5 4"></path>
</svg>
