<svg viewBox="0 0 24 24" fill="none" stroke="currentColor" stroke-width="2" stroke-linecap="round" stroke-linejoin="round" class="icon icon-tabler icons-tabler-outline icon-tabler-device-remote">
  <path d="M12 10m-2 0a2 2 0 1 0 4 0a2 2 0 1 0 -4 0"></path>
  <path d="M7 3m0 2a2 2 0 0 1 2 -2h6a2 2 0 0 1 2 2v14a2 2 0 0 1 -2 2h-6a2 2 0 0 1 -2 -2z"></path>
  <path d="M12 3v2"></path>
  <path d="M10 15v.01"></path>
  <path d="M10 18v.01"></path>
  <path d="M14 18v.01"></path>
  <path d="M14 15v.01"></path>
</svg>
