<svg viewBox="0 0 24 24" fill="currentColor" class="icon icon-tabler icons-tabler-filled icon-tabler-dialpad">
  <path d="M6 2h-2a2 2 0 0 0 -2 2v2a2 2 0 0 0 2 2h2a2 2 0 0 0 2 -2v-2a2 2 0 0 0 -2 -2z"></path>
  <path d="M20 2h-2a2 2 0 0 0 -2 2v2a2 2 0 0 0 2 2h2a2 2 0 0 0 2 -2v-2a2 2 0 0 0 -2 -2z"></path>
  <path d="M13 2h-2a2 2 0 0 0 -2 2v2a2 2 0 0 0 2 2h2a2 2 0 0 0 2 -2v-2a2 2 0 0 0 -2 -2z"></path>
  <path d="M6 9h-2a2 2 0 0 0 -2 2v2a2 2 0 0 0 2 2h2a2 2 0 0 0 2 -2v-2a2 2 0 0 0 -2 -2z"></path>
  <path d="M20 9h-2a2 2 0 0 0 -2 2v2a2 2 0 0 0 2 2h2a2 2 0 0 0 2 -2v-2a2 2 0 0 0 -2 -2z"></path>
  <path d="M13 9h-2a2 2 0 0 0 -2 2v2a2 2 0 0 0 2 2h2a2 2 0 0 0 2 -2v-2a2 2 0 0 0 -2 -2z"></path>
  <path d="M13 16h-2a2 2 0 0 0 -2 2v2a2 2 0 0 0 2 2h2a2 2 0 0 0 2 -2v-2a2 2 0 0 0 -2 -2z"></path>
</svg>
