<svg viewBox="0 0 24 24" fill="none" stroke="currentColor" stroke-width="2" stroke-linecap="round" stroke-linejoin="round" class="icon icon-tabler icons-tabler-outline icon-tabler-dimensions">
  <path d="M3 5h11"></path>
  <path d="M12 7l2 -2l-2 -2"></path>
  <path d="M5 3l-2 2l2 2"></path>
  <path d="M19 10v11"></path>
  <path d="M17 19l2 2l2 -2"></path>
  <path d="M21 12l-2 -2l-2 2"></path>
  <path d="M3 10m0 2a2 2 0 0 1 2 -2h7a2 2 0 0 1 2 2v7a2 2 0 0 1 -2 2h-7a2 2 0 0 1 -2 -2z"></path>
</svg>
