<svg viewBox="0 0 24 24" fill="none" stroke="currentColor" stroke-width="2" stroke-linecap="round" stroke-linejoin="round" class="icon icon-tabler icons-tabler-outline icon-tabler-fingerprint-scan">
  <path d="M9 11a3 3 0 0 1 6 0c0 1.657 .612 3.082 1 4"></path>
  <path d="M12 11v1.75c-.001 1.11 .661 2.206 1 3.25"></path>
  <path d="M9 14.25c.068 .58 .358 1.186 .5 1.75"></path>
  <path d="M4 8v-2a2 2 0 0 1 2 -2h2"></path>
  <path d="M4 16v2a2 2 0 0 0 2 2h2"></path>
  <path d="M16 4h2a2 2 0 0 1 2 2v2"></path>
  <path d="M16 20h2a2 2 0 0 0 2 -2v-2"></path>
</svg>
