<svg viewBox="0 0 24 24" fill="none" stroke="currentColor" stroke-width="2" stroke-linecap="round" stroke-linejoin="round" class="icon icon-tabler icons-tabler-outline icon-tabler-grain">
  <path d="M4.5 9.5m-1 0a1 1 0 1 0 2 0a1 1 0 1 0 -2 0"></path>
  <path d="M9.5 4.5m-1 0a1 1 0 1 0 2 0a1 1 0 1 0 -2 0"></path>
  <path d="M9.5 14.5m-1 0a1 1 0 1 0 2 0a1 1 0 1 0 -2 0"></path>
  <path d="M4.5 19.5m-1 0a1 1 0 1 0 2 0a1 1 0 1 0 -2 0"></path>
  <path d="M14.5 9.5m-1 0a1 1 0 1 0 2 0a1 1 0 1 0 -2 0"></path>
  <path d="M19.5 4.5m-1 0a1 1 0 1 0 2 0a1 1 0 1 0 -2 0"></path>
  <path d="M14.5 19.5m-1 0a1 1 0 1 0 2 0a1 1 0 1 0 -2 0"></path>
  <path d="M19.5 14.5m-1 0a1 1 0 1 0 2 0a1 1 0 1 0 -2 0"></path>
</svg>
