<svg viewBox="0 0 24 24" fill="none" stroke="currentColor" stroke-width="2" stroke-linecap="round" stroke-linejoin="round" class="icon icon-tabler icons-tabler-outline icon-tabler-grip-horizontal">
  <path d="M5 9m-1 0a1 1 0 1 0 2 0a1 1 0 1 0 -2 0"></path>
  <path d="M5 15m-1 0a1 1 0 1 0 2 0a1 1 0 1 0 -2 0"></path>
  <path d="M12 9m-1 0a1 1 0 1 0 2 0a1 1 0 1 0 -2 0"></path>
  <path d="M12 15m-1 0a1 1 0 1 0 2 0a1 1 0 1 0 -2 0"></path>
  <path d="M19 9m-1 0a1 1 0 1 0 2 0a1 1 0 1 0 -2 0"></path>
  <path d="M19 15m-1 0a1 1 0 1 0 2 0a1 1 0 1 0 -2 0"></path>
</svg>
