<svg class="icon icon-tabler icon-tabler-grip-horizontal" viewBox="0 0 24 24" stroke-width="2" stroke="currentColor" fill="none" stroke-linecap="round" stroke-linejoin="round">
  <path d="M5 9m-1 0a1 1 0 1 0 2 0a1 1 0 1 0 -2 0"></path>
  <path d="M5 15m-1 0a1 1 0 1 0 2 0a1 1 0 1 0 -2 0"></path>
  <path d="M12 9m-1 0a1 1 0 1 0 2 0a1 1 0 1 0 -2 0"></path>
  <path d="M12 15m-1 0a1 1 0 1 0 2 0a1 1 0 1 0 -2 0"></path>
  <path d="M19 9m-1 0a1 1 0 1 0 2 0a1 1 0 1 0 -2 0"></path>
  <path d="M19 15m-1 0a1 1 0 1 0 2 0a1 1 0 1 0 -2 0"></path>
</svg>
