<svg viewBox="0 0 24 24" fill="none" stroke="currentColor" stroke-width="2" stroke-linecap="round" stroke-linejoin="round" class="icon icon-tabler icons-tabler-outline icon-tabler-keyboard-show">
  <path d="M2 3m0 2a2 2 0 0 1 2 -2h16a2 2 0 0 1 2 2v8a2 2 0 0 1 -2 2h-16a2 2 0 0 1 -2 -2z"></path>
  <path d="M6 7l0 .01"></path>
  <path d="M10 7l0 .01"></path>
  <path d="M14 7l0 .01"></path>
  <path d="M18 7l0 .01"></path>
  <path d="M6 11l0 .01"></path>
  <path d="M18 11l0 .01"></path>
  <path d="M10 11l4 0"></path>
  <path d="M10 19l2 2l2 -2"></path>
</svg>
