<svg viewBox="0 0 24 24" fill="none" stroke="currentColor" stroke-width="2" stroke-linecap="round" stroke-linejoin="round" class="icon icon-tabler icons-tabler-outline icon-tabler-layers-selected">
  <path d="M8 10.5l6.492 -6.492"></path>
  <path d="M13.496 16l6.504 -6.504z"></path>
  <path d="M8.586 15.414l10.827 -10.827"></path>
  <path d="M8 6a2 2 0 0 1 2 -2h8a2 2 0 0 1 2 2v8a2 2 0 0 1 -2 2h-8a2 2 0 0 1 -2 -2z"></path>
  <path d="M16 16v2a2 2 0 0 1 -2 2h-8a2 2 0 0 1 -2 -2v-8a2 2 0 0 1 2 -2h2"></path>
</svg>
