<svg viewBox="0 0 24 24" fill="none" stroke="currentColor" stroke-width="2" stroke-linecap="round" stroke-linejoin="round" class="icon icon-tabler icons-tabler-outline icon-tabler-layout-2">
  <path d="M4 4m0 2a2 2 0 0 1 2 -2h2a2 2 0 0 1 2 2v1a2 2 0 0 1 -2 2h-2a2 2 0 0 1 -2 -2z"></path>
  <path d="M4 13m0 2a2 2 0 0 1 2 -2h2a2 2 0 0 1 2 2v3a2 2 0 0 1 -2 2h-2a2 2 0 0 1 -2 -2z"></path>
  <path d="M14 4m0 2a2 2 0 0 1 2 -2h2a2 2 0 0 1 2 2v3a2 2 0 0 1 -2 2h-2a2 2 0 0 1 -2 -2z"></path>
  <path d="M14 15m0 2a2 2 0 0 1 2 -2h2a2 2 0 0 1 2 2v1a2 2 0 0 1 -2 2h-2a2 2 0 0 1 -2 -2z"></path>
</svg>
