<svg viewBox="0 0 24 24" fill="none" stroke="currentColor" stroke-width="2" stroke-linecap="round" stroke-linejoin="round" class="icon icon-tabler icons-tabler-outline icon-tabler-lock-pin">
  <path d="M12.5 21h-5.5a2 2 0 0 1 -2 -2v-6a2 2 0 0 1 2 -2h10c.24 0 .47 .042 .683 .12"></path>
  <path d="M11 16a1 1 0 1 0 2 0a1 1 0 0 0 -2 0"></path>
  <path d="M8 11v-4a4 4 0 1 1 8 0v4"></path>
  <path d="M21.121 20.121a3 3 0 1 0 -4.242 0c.418 .419 1.125 1.045 2.121 1.879c1.051 -.89 1.759 -1.516 2.121 -1.879z"></path>
  <path d="M19 18v.01"></path>
</svg>
