<svg class="icon icon-tabler icon-tabler-luggage-off" viewBox="0 0 24 24" stroke-width="2" stroke="currentColor" fill="none" stroke-linecap="round" stroke-linejoin="round">
  <path d="M10 6h6a2 2 0 0 1 2 2v6m0 4a2 2 0 0 1 -2 2h-8a2 2 0 0 1 -2 -2v-10c0 -.546 .218 -1.04 .573 -1.4"></path>
  <path d="M9 5a2 2 0 0 1 2 -2h2a2 2 0 0 1 2 2v1"></path>
  <path d="M6 10h4m4 0h4"></path>
  <path d="M6 16h10"></path>
  <path d="M9 20v1"></path>
  <path d="M15 20v1"></path>
  <path d="M3 3l18 18"></path>
</svg>
