<svg viewBox="0 0 24 24" fill="none" stroke="currentColor" stroke-width="2" stroke-linecap="round" stroke-linejoin="round" class="icon icon-tabler icons-tabler-outline icon-tabler-photo-code">
  <path d="M15 8h.01"></path>
  <path d="M11.5 21h-5.5a3 3 0 0 1 -3 -3v-12a3 3 0 0 1 3 -3h12a3 3 0 0 1 3 3v7"></path>
  <path d="M3 16l5 -5c.928 -.893 2.072 -.893 3 0l3 3"></path>
  <path d="M14 14l1 -1c.928 -.893 2.072 -.893 3 0"></path>
  <path d="M20 21l2 -2l-2 -2"></path>
  <path d="M17 17l-2 2l2 2"></path>
</svg>
