<svg viewBox="0 0 24 24" fill="none" stroke="currentColor" stroke-width="2" stroke-linecap="round" stroke-linejoin="round" class="icon icon-tabler icons-tabler-outline icon-tabler-photo-scan">
  <path d="M15 8h.01"></path>
  <path d="M6 13l2.644 -2.644a1.21 1.21 0 0 1 1.712 0l3.644 3.644"></path>
  <path d="M13 13l1.644 -1.644a1.21 1.21 0 0 1 1.712 0l1.644 1.644"></path>
  <path d="M4 8v-2a2 2 0 0 1 2 -2h2"></path>
  <path d="M4 16v2a2 2 0 0 0 2 2h2"></path>
  <path d="M16 4h2a2 2 0 0 1 2 2v2"></path>
  <path d="M16 20h2a2 2 0 0 0 2 -2v-2"></path>
</svg>
