<svg class="icon icon-tabler icon-tabler-polygon" viewBox="0 0 24 24" stroke-width="2" stroke="currentColor" fill="none" stroke-linecap="round" stroke-linejoin="round">
  <path d="M12 5m-2 0a2 2 0 1 0 4 0a2 2 0 1 0 -4 0"></path>
  <path d="M19 8m-2 0a2 2 0 1 0 4 0a2 2 0 1 0 -4 0"></path>
  <path d="M5 11m-2 0a2 2 0 1 0 4 0a2 2 0 1 0 -4 0"></path>
  <path d="M15 19m-2 0a2 2 0 1 0 4 0a2 2 0 1 0 -4 0"></path>
  <path d="M6.5 9.5l3.5 -3"></path>
  <path d="M14 5.5l3 1.5"></path>
  <path d="M18.5 10l-2.5 7"></path>
  <path d="M13.5 17.5l-7 -5"></path>
</svg>
