<svg class="icon icon-tabler icon-tabler-puzzle-off" viewBox="0 0 24 24" stroke-width="2" stroke="currentColor" fill="none" stroke-linecap="round" stroke-linejoin="round">
  <path d="M8.18 4.171a2 2 0 0 1 3.82 .829v1a1 1 0 0 0 1 1h3a1 1 0 0 1 1 1v3a1 1 0 0 0 1 1h1a2 2 0 0 1 .819 3.825m-2.819 1.175v3a1 1 0 0 1 -1 1h-3a1 1 0 0 1 -1 -1v-1a2 2 0 1 0 -4 0v1a1 1 0 0 1 -1 1h-3a1 1 0 0 1 -1 -1v-3a1 1 0 0 1 1 -1h1a2 2 0 1 0 0 -4h-1a1 1 0 0 1 -1 -1v-3a1 1 0 0 1 1 -1h3"></path>
  <path d="M3 3l18 18"></path>
</svg>
