<svg viewBox="0 0 24 24" fill="none" stroke="currentColor" stroke-width="2" stroke-linecap="round" stroke-linejoin="round" class="icon icon-tabler icons-tabler-outline icon-tabler-replace">
  <path d="M3 3m0 1a1 1 0 0 1 1 -1h4a1 1 0 0 1 1 1v4a1 1 0 0 1 -1 1h-4a1 1 0 0 1 -1 -1z"></path>
  <path d="M15 15m0 1a1 1 0 0 1 1 -1h4a1 1 0 0 1 1 1v4a1 1 0 0 1 -1 1h-4a1 1 0 0 1 -1 -1z"></path>
  <path d="M21 11v-3a2 2 0 0 0 -2 -2h-6l3 3m0 -6l-3 3"></path>
  <path d="M3 13v3a2 2 0 0 0 2 2h6l-3 -3m0 6l3 -3"></path>
</svg>
