<svg class="icon icon-tabler icon-tabler-robot" viewBox="0 0 24 24" stroke-width="2" stroke="currentColor" fill="none" stroke-linecap="round" stroke-linejoin="round">
  <path d="M6 4m0 2a2 2 0 0 1 2 -2h8a2 2 0 0 1 2 2v4a2 2 0 0 1 -2 2h-8a2 2 0 0 1 -2 -2z"></path>
  <path d="M12 2v2"></path>
  <path d="M9 12v9"></path>
  <path d="M15 12v9"></path>
  <path d="M5 16l4 -2"></path>
  <path d="M15 14l4 2"></path>
  <path d="M9 18h6"></path>
  <path d="M10 8v.01"></path>
  <path d="M14 8v.01"></path>
</svg>
