<svg viewBox="0 0 24 24" fill="none" stroke="currentColor" stroke-width="2" stroke-linecap="round" stroke-linejoin="round" class="icon icon-tabler icons-tabler-outline icon-tabler-satellite">
  <path d="M3.707 6.293l2.586 -2.586a1 1 0 0 1 1.414 0l5.586 5.586a1 1 0 0 1 0 1.414l-2.586 2.586a1 1 0 0 1 -1.414 0l-5.586 -5.586a1 1 0 0 1 0 -1.414z"></path>
  <path d="M6 10l-3 3l3 3l3 -3"></path>
  <path d="M10 6l3 -3l3 3l-3 3"></path>
  <path d="M12 12l1.5 1.5"></path>
  <path d="M14.5 17a2.5 2.5 0 0 0 2.5 -2.5"></path>
  <path d="M15 21a6 6 0 0 0 6 -6"></path>
</svg>
