<svg class="icon icon-tabler icon-tabler-scan-eye" viewBox="0 0 24 24" stroke-width="2" stroke="currentColor" fill="none" stroke-linecap="round" stroke-linejoin="round">
  <path d="M4 8v-2a2 2 0 0 1 2 -2h2"></path>
  <path d="M4 16v2a2 2 0 0 0 2 2h2"></path>
  <path d="M16 4h2a2 2 0 0 1 2 2v2"></path>
  <path d="M16 20h2a2 2 0 0 0 2 -2v-2"></path>
  <path d="M7 12c3.333 -4.667 6.667 -4.667 10 0"></path>
  <path d="M7 12c3.333 4.667 6.667 4.667 10 0"></path>
  <path d="M12 12h-.01"></path>
</svg>
