<svg viewBox="0 0 24 24" fill="none" stroke="currentColor" stroke-width="2" stroke-linecap="round" stroke-linejoin="round" class="icon icon-tabler icons-tabler-outline icon-tabler-section">
  <path d="M20 20h.01"></path>
  <path d="M4 20h.01"></path>
  <path d="M8 20h.01"></path>
  <path d="M12 20h.01"></path>
  <path d="M16 20h.01"></path>
  <path d="M20 4h.01"></path>
  <path d="M4 4h.01"></path>
  <path d="M8 4h.01"></path>
  <path d="M12 4h.01"></path>
  <path d="M16 4l0 .01"></path>
  <path d="M4 8m0 1a1 1 0 0 1 1 -1h14a1 1 0 0 1 1 1v6a1 1 0 0 1 -1 1h-14a1 1 0 0 1 -1 -1z"></path>
</svg>
