<svg viewBox="0 0 24 24" fill="none" stroke="currentColor" stroke-width="2" stroke-linecap="round" stroke-linejoin="round" class="icon icon-tabler icons-tabler-outline icon-tabler-server-2">
  <path d="M3 4m0 3a3 3 0 0 1 3 -3h12a3 3 0 0 1 3 3v2a3 3 0 0 1 -3 3h-12a3 3 0 0 1 -3 -3z"></path>
  <path d="M3 12m0 3a3 3 0 0 1 3 -3h12a3 3 0 0 1 3 3v2a3 3 0 0 1 -3 3h-12a3 3 0 0 1 -3 -3z"></path>
  <path d="M7 8l0 .01"></path>
  <path d="M7 16l0 .01"></path>
  <path d="M11 8h6"></path>
  <path d="M11 16h6"></path>
</svg>
