<svg class="icon icon-tabler icon-tabler-shape-off" viewBox="0 0 24 24" stroke-width="2" stroke="currentColor" fill="none" stroke-linecap="round" stroke-linejoin="round">
  <path d="M3.575 3.597a2 2 0 0 0 2.849 2.808"></path>
  <path d="M19 5m-2 0a2 2 0 1 0 4 0a2 2 0 1 0 -4 0"></path>
  <path d="M5 19m-2 0a2 2 0 1 0 4 0a2 2 0 1 0 -4 0"></path>
  <path d="M17.574 17.598a2 2 0 0 0 2.826 2.83"></path>
  <path d="M5 7v10"></path>
  <path d="M9 5h8"></path>
  <path d="M7 19h10"></path>
  <path d="M19 7v8"></path>
  <path d="M3 3l18 18"></path>
</svg>
