<svg class="icon icon-tabler icon-tabler-share-off" viewBox="0 0 24 24" stroke-width="2" stroke="currentColor" fill="none" stroke-linecap="round" stroke-linejoin="round">
  <path d="M6 12m-3 0a3 3 0 1 0 6 0a3 3 0 1 0 -6 0"></path>
  <path d="M18 6m-3 0a3 3 0 1 0 6 0a3 3 0 1 0 -6 0"></path>
  <path d="M15.861 15.896a3 3 0 0 0 4.265 4.22m.578 -3.417a3.012 3.012 0 0 0 -1.507 -1.45"></path>
  <path d="M8.7 10.7l1.336 -.688m2.624 -1.352l2.64 -1.36"></path>
  <path d="M8.7 13.3l6.6 3.4"></path>
  <path d="M3 3l18 18"></path>
</svg>
