<svg class="icon icon-tabler icon-tabler-ship-off" viewBox="0 0 24 24" stroke-width="2" stroke="currentColor" fill="none" stroke-linecap="round" stroke-linejoin="round">
  <path d="M2 20a2.4 2.4 0 0 0 2 1a2.4 2.4 0 0 0 2 -1a2.4 2.4 0 0 1 2 -1a2.4 2.4 0 0 1 2 1a2.4 2.4 0 0 0 2 1a2.4 2.4 0 0 0 2 -1a2.4 2.4 0 0 1 2 -1a2.4 2.4 0 0 1 2 1a2.4 2.4 0 0 0 2 1a2.4 2.4 0 0 0 2 -1"></path>
  <path d="M4 18l-1 -5h10m4 0h4l-1.334 2.668"></path>
  <path d="M5 13v-6h2m4 0h2l4 6"></path>
  <path d="M3 3l18 18"></path>
</svg>
