<svg class="icon icon-tabler icon-tabler-shopping-cart-cog" viewBox="0 0 24 24" stroke-width="2" stroke="currentColor" fill="none" stroke-linecap="round" stroke-linejoin="round">
  <path d="M4 19a2 2 0 1 0 4 0a2 2 0 0 0 -4 0"></path>
  <path d="M12 17h-6v-14h-2"></path>
  <path d="M6 5l14 1l-.79 5.526m-3.21 1.474h-10"></path>
  <path d="M19.001 19m-2 0a2 2 0 1 0 4 0a2 2 0 1 0 -4 0"></path>
  <path d="M19.001 15.5v1.5"></path>
  <path d="M19.001 21v1.5"></path>
  <path d="M22.032 17.25l-1.299 .75"></path>
  <path d="M17.27 20l-1.3 .75"></path>
  <path d="M15.97 17.25l1.3 .75"></path>
  <path d="M20.733 20l1.3 .75"></path>
</svg>
