<svg class="icon icon-tabler icon-tabler-social-off" viewBox="0 0 24 24" stroke-width="2" stroke="currentColor" fill="none" stroke-linecap="round" stroke-linejoin="round">
  <path d="M12 5m-2 0a2 2 0 1 0 4 0a2 2 0 1 0 -4 0"></path>
  <path d="M5 19m-2 0a2 2 0 1 0 4 0a2 2 0 1 0 -4 0"></path>
  <path d="M17.57 17.602a2 2 0 0 0 2.83 2.827"></path>
  <path d="M11.113 11.133a3 3 0 1 0 3.765 3.715"></path>
  <path d="M12 7v1"></path>
  <path d="M6.7 17.8l2.8 -2"></path>
  <path d="M17.3 17.8l-2.8 -2"></path>
  <path d="M3 3l18 18"></path>
</svg>
