<svg class="icon icon-tabler icon-tabler-spider" viewBox="0 0 24 24" stroke-width="2" stroke="currentColor" fill="none" stroke-linecap="round" stroke-linejoin="round">
  <path d="M5 4v2l5 5"></path>
  <path d="M2.5 9.5l1.5 1.5h6"></path>
  <path d="M4 19v-2l6 -6"></path>
  <path d="M19 4v2l-5 5"></path>
  <path d="M21.5 9.5l-1.5 1.5h-6"></path>
  <path d="M20 19v-2l-6 -6"></path>
  <path d="M12 15m-4 0a4 4 0 1 0 8 0a4 4 0 1 0 -8 0"></path>
  <path d="M12 9m-2 0a2 2 0 1 0 4 0a2 2 0 1 0 -4 0"></path>
</svg>
