<svg class="icon icon-tabler icon-tabler-squares-filled" viewBox="0 0 24 24" stroke-width="2" stroke="currentColor" fill="none" stroke-linecap="round" stroke-linejoin="round">
  <path d="M8 8m0 2a2 2 0 0 1 2 -2h8a2 2 0 0 1 2 2v8a2 2 0 0 1 -2 2h-8a2 2 0 0 1 -2 -2z"></path>
  <path d="M8 14.5l6.492 -6.492"></path>
  <path d="M13.496 20l6.504 -6.504l-6.504 6.504z"></path>
  <path d="M8.586 19.414l10.827 -10.827"></path>
  <path d="M16 8v-2a2 2 0 0 0 -2 -2h-8a2 2 0 0 0 -2 2v8a2 2 0 0 0 2 2h2"></path>
</svg>
