<svg viewBox="0 0 24 24" fill="none" stroke="currentColor" stroke-width="2" stroke-linecap="round" stroke-linejoin="round" class="icon icon-tabler icons-tabler-outline icon-tabler-tip-jar-pound">
  <path d="M17 4v1.882c0 .685 .387 1.312 1 1.618s1 .933 1 1.618v8.882a3 3 0 0 1 -3 3h-8a3 3 0 0 1 -3 -3v-8.882c0 -.685 .387 -1.312 1 -1.618s1 -.933 1 -1.618v-1.882"></path>
  <path d="M6 4h12z"></path>
  <path d="M14 10h-1a2 2 0 0 0 -2 2v2c0 1.105 -.395 2 -1.5 2h4.5"></path>
  <path d="M10 13h3"></path>
</svg>
