<svg class="icon icon-tabler icon-tabler-topology-star" viewBox="0 0 24 24" stroke-width="2" stroke="currentColor" fill="none" stroke-linecap="round" stroke-linejoin="round">
  <path d="M8 18a2 2 0 1 0 -4 0a2 2 0 0 0 4 0z"></path>
  <path d="M20 6a2 2 0 1 0 -4 0a2 2 0 0 0 4 0z"></path>
  <path d="M8 6a2 2 0 1 0 -4 0a2 2 0 0 0 4 0z"></path>
  <path d="M20 18a2 2 0 1 0 -4 0a2 2 0 0 0 4 0z"></path>
  <path d="M14 12a2 2 0 1 0 -4 0a2 2 0 0 0 4 0z"></path>
  <path d="M7.5 7.5l3 3"></path>
  <path d="M7.5 16.5l3 -3"></path>
  <path d="M13.5 13.5l3 3"></path>
  <path d="M16.5 7.5l-3 3"></path>
</svg>
