<svg class="icon icon-tabler icon-tabler-topology-star-3" viewBox="0 0 24 24" stroke-width="2" stroke="currentColor" fill="none" stroke-linecap="round" stroke-linejoin="round">
  <path d="M10 19a2 2 0 1 0 -4 0a2 2 0 0 0 4 0z"></path>
  <path d="M18 5a2 2 0 1 0 -4 0a2 2 0 0 0 4 0z"></path>
  <path d="M10 5a2 2 0 1 0 -4 0a2 2 0 0 0 4 0z"></path>
  <path d="M6 12a2 2 0 1 0 -4 0a2 2 0 0 0 4 0z"></path>
  <path d="M18 19a2 2 0 1 0 -4 0a2 2 0 0 0 4 0z"></path>
  <path d="M14 12a2 2 0 1 0 -4 0a2 2 0 0 0 4 0z"></path>
  <path d="M22 12a2 2 0 1 0 -4 0a2 2 0 0 0 4 0z"></path>
  <path d="M6 12h4"></path>
  <path d="M14 12h4"></path>
  <path d="M15 7l-2 3"></path>
  <path d="M9 7l2 3"></path>
  <path d="M11 14l-2 3"></path>
  <path d="M13 14l2 3"></path>
</svg>
