<svg class="icon icon-tabler icon-tabler-topology-ring-3" viewBox="0 0 24 24" stroke-width="2" stroke="currentColor" fill="none" stroke-linecap="round" stroke-linejoin="round">
  <path d="M8 18a2 2 0 1 0 -4 0a2 2 0 0 0 4 0z"></path>
  <path d="M20 18a2 2 0 1 0 -4 0a2 2 0 0 0 4 0z"></path>
  <path d="M20 6a2 2 0 1 0 -4 0a2 2 0 0 0 4 0z"></path>
  <path d="M8 6a2 2 0 1 0 -4 0a2 2 0 0 0 4 0z"></path>
  <path d="M6 8v8"></path>
  <path d="M18 16v-8"></path>
  <path d="M8 6h8"></path>
  <path d="M16 18h-8"></path>
</svg>
