<svg class="icon icon-tabler icon-tabler-topology-star-ring" viewBox="0 0 24 24" stroke-width="2" stroke="currentColor" fill="none" stroke-linecap="round" stroke-linejoin="round">
  <path d="M14 20a2 2 0 1 0 -4 0a2 2 0 0 0 4 0z"></path>
  <path d="M14 4a2 2 0 1 0 -4 0a2 2 0 0 0 4 0z"></path>
  <path d="M6 12a2 2 0 1 0 -4 0a2 2 0 0 0 4 0z"></path>
  <path d="M22 12a2 2 0 1 0 -4 0a2 2 0 0 0 4 0z"></path>
  <path d="M14 12a2 2 0 1 0 -4 0a2 2 0 0 0 4 0z"></path>
  <path d="M6 12h4"></path>
  <path d="M14 12h4"></path>
  <path d="M13.5 5.5l5 5"></path>
  <path d="M5.5 13.5l5 5"></path>
  <path d="M13.5 18.5l5 -5"></path>
  <path d="M10.5 5.5l-5 5"></path>
  <path d="M12 6v4"></path>
  <path d="M12 14v4"></path>
</svg>
