<svg class="icon icon-tabler icon-tabler-trees" viewBox="0 0 24 24" stroke-width="2" stroke="currentColor" fill="none" stroke-linecap="round" stroke-linejoin="round">
  <path d="M16 5l3 3l-2 1l4 4l-3 1l4 4h-9"></path>
  <path d="M15 21l0 -3"></path>
  <path d="M8 13l-2 -2"></path>
  <path d="M8 12l2 -2"></path>
  <path d="M8 21v-13"></path>
  <path d="M5.824 16a3 3 0 0 1 -2.743 -3.69a3 3 0 0 1 .304 -4.833a3 3 0 0 1 4.615 -3.707a3 3 0 0 1 4.614 3.707a3 3 0 0 1 .305 4.833a3 3 0 0 1 -2.919 3.695h-4z"></path>
</svg>
