<svg viewBox="0 0 24 24" fill="none" stroke="currentColor" stroke-width="2" stroke-linecap="round" stroke-linejoin="round" class="icon icon-tabler icons-tabler-outline icon-tabler-universe">
  <path d="M7.027 11.477a5 5 0 1 0 5.496 -4.45a4.951 4.951 0 0 0 -3.088 .681"></path>
  <path d="M5.636 5.636a9 9 0 1 0 3.555 -2.188"></path>
  <path d="M18 5m-1 0a1 1 0 1 0 2 0a1 1 0 1 0 -2 0"></path>
  <path d="M12 12m-1 0a1 1 0 1 0 2 0a1 1 0 1 0 -2 0"></path>
  <path d="M9 16m-1 0a1 1 0 1 0 2 0a1 1 0 1 0 -2 0"></path>
</svg>
