<svg class="icon icon-tabler icon-tabler-vector-bezier" viewBox="0 0 24 24" stroke-width="2" stroke="currentColor" fill="none" stroke-linecap="round" stroke-linejoin="round">
  <path d="M3 14m0 1a1 1 0 0 1 1 -1h2a1 1 0 0 1 1 1v2a1 1 0 0 1 -1 1h-2a1 1 0 0 1 -1 -1z"></path>
  <path d="M17 14m0 1a1 1 0 0 1 1 -1h2a1 1 0 0 1 1 1v2a1 1 0 0 1 -1 1h-2a1 1 0 0 1 -1 -1z"></path>
  <path d="M10 6m0 1a1 1 0 0 1 1 -1h2a1 1 0 0 1 1 1v2a1 1 0 0 1 -1 1h-2a1 1 0 0 1 -1 -1z"></path>
  <path d="M10 8.5a6 6 0 0 0 -5 5.5"></path>
  <path d="M14 8.5a6 6 0 0 1 5 5.5"></path>
  <path d="M10 8l-6 0"></path>
  <path d="M20 8l-6 0"></path>
  <path d="M3 8m-1 0a1 1 0 1 0 2 0a1 1 0 1 0 -2 0"></path>
  <path d="M21 8m-1 0a1 1 0 1 0 2 0a1 1 0 1 0 -2 0"></path>
</svg>
