<svg class="icon icon-tabler icon-tabler-vector-bezier-2" viewBox="0 0 24 24" stroke-width="2" stroke="currentColor" fill="none" stroke-linecap="round" stroke-linejoin="round">
  <path d="M3 3m0 1a1 1 0 0 1 1 -1h2a1 1 0 0 1 1 1v2a1 1 0 0 1 -1 1h-2a1 1 0 0 1 -1 -1z"></path>
  <path d="M17 17m0 1a1 1 0 0 1 1 -1h2a1 1 0 0 1 1 1v2a1 1 0 0 1 -1 1h-2a1 1 0 0 1 -1 -1z"></path>
  <path d="M7 5l7 0"></path>
  <path d="M10 19l7 0"></path>
  <path d="M9 19m-1 0a1 1 0 1 0 2 0a1 1 0 1 0 -2 0"></path>
  <path d="M15 5m-1 0a1 1 0 1 0 2 0a1 1 0 1 0 -2 0"></path>
  <path d="M7 5.5a5 6.5 0 0 1 5 6.5a5 6.5 0 0 0 5 6.5"></path>
</svg>
