<svg viewBox="0 0 24 24" fill="none" stroke="currentColor" stroke-width="2" stroke-linecap="round" stroke-linejoin="round" class="icon icon-tabler icons-tabler-outline icon-tabler-wash-off">
  <path d="M3 6l1.721 10.329a2 2 0 0 0 1.973 1.671h10.612c.208 0 .41 -.032 .6 -.092m1.521 -2.472l1.573 -9.436"></path>
  <path d="M3.486 8.965c.168 .02 .34 .033 .514 .035c.79 .009 1.539 -.178 2 -.5c.461 -.32 1.21 -.507 2 -.5m4.92 .919c.428 -.083 .805 -.227 1.08 -.418c.461 -.322 1.21 -.508 2 -.5c.79 -.008 1.539 .178 2 .5c.461 .32 1.21 .508 2 .5c.17 0 .339 -.015 .503 -.035"></path>
  <path d="M3 3l18 18"></path>
</svg>
